# xmcd CD database file
#
# Track frame offsets:
#	150
#	18952
#	36532
#	55882
#	79275
#	95720
#	102755
#	129470
#	151082
#	166242
#	195670
#	215185
#	241597
#
# Disc length: 3556 seconds
#
# Revision: 2
# Processed by: cddbd v1.4b41PL1 Copyright (c) Steve Scherf et al.
# Submitted via: Feurio! 1.60 - http://www.feurio.com
#
DISCID=a90de20d,b10de20d
DTITLE=Steamboat Band - Runners And Riders
DYEAR=1900
DGENRE=
TTITLE0=Got No Tears
TTITLE1=Died Without Sleeping
TTITLE2=Everybody Needs The Morning Rain
TTITLE3=Fall From Grace
TTITLE4=Hit The Bottle Again
TTITLE5=Take Your Hands Off The Wheel
TTITLE6=Just Like Me
TTITLE7=Running To Waycross
TTITLE8=Goodbye Mary Jane
TTITLE9=Take A Little Time (Off My Hands)
TTITLE10=Restless Lullaby
TTITLE11=She's Coming My Way
TTITLE12=Let It Pass Me By
EXTD=
EXTT0=
EXTT1=
EXTT2=
EXTT3=
EXTT4=
EXTT5=
EXTT6=
EXTT7=
EXTT8=
EXTT9=
EXTT10=
EXTT11=
EXTT12=
PLAYORDER=
